<?xml version="1.0" encoding="UTF-8"?>
<svg xmlns="http://www.w3.org/2000/svg" viewBox="0 0 610.304 128.000" role="img" aria-labelledby="title desc">
  <title id="title">ProxyScroll wordmark</title>
  <desc id="desc">ProxyScroll custom wordmark converted to vector outlines.</desc>
  <path d="M16.8125 31.015625H46.765625Q60.125 31.015625 67.2734375 36.9453125Q74.421875 42.875 74.421875 53.84375Q74.421875 64.859375 67.2734375 70.7890625Q60.125 76.71875 46.765625 76.71875H34.859375V101.0H16.8125ZM34.859375 44.09375V63.640625H44.84375Q50.09375 63.640625 52.953125 61.0859375Q55.8125 58.53125 55.8125 53.84375Q55.8125 49.15625 52.953125 46.625Q50.09375 44.09375 44.84375 44.09375Z M123.69387499999999 62.796875Q121.49074999999999 61.765625 119.31106249999999 61.2734375Q117.13137499999999 60.78125 114.92824999999999 60.78125Q108.45949999999999 60.78125 104.96731249999999 64.9296875Q101.47512499999999 69.078125 101.47512499999999 76.8125V101.0H84.69387499999999V48.5H101.47512499999999V57.125Q104.70949999999999 51.96875 108.90481249999999 49.6015625Q113.10012499999999 47.234375 118.95949999999999 47.234375Q119.80324999999999 47.234375 120.78762499999999 47.3046875Q121.77199999999999 47.375 123.64699999999999 47.609375Z M155.29399999999998 59.234375Q149.71587499999998 59.234375 146.78618749999998 63.2421875Q143.85649999999998 67.25 143.85649999999998 74.796875Q143.85649999999998 82.34375 146.78618749999998 86.3515625Q149.71587499999998 90.359375 155.29399999999998 90.359375Q160.77837499999998 90.359375 163.68462499999998 86.3515625Q166.59087499999998 82.34375 166.59087499999998 74.796875Q166.59087499999998 67.25 163.68462499999998 63.2421875Q160.77837499999998 59.234375 155.29399999999998 59.234375ZM155.29399999999998 47.234375Q168.84087499999998 47.234375 176.45806249999998 54.546875Q184.07524999999998 61.859375 184.07524999999998 74.796875Q184.07524999999998 87.734375 176.45806249999998 95.046875Q168.84087499999998 102.359375 155.29399999999998 102.359375Q141.70024999999998 102.359375 134.03618749999998 95.046875Q126.37212499999998 87.734375 126.37212499999998 74.796875Q126.37212499999998 61.859375 134.03618749999998 54.546875Q141.70024999999998 47.234375 155.29399999999998 47.234375Z M207.80037499999997 74.140625 188.86287499999997 48.5H206.62849999999997L217.36287499999997 64.0625L228.23787499999997 48.5H246.00349999999997L227.06599999999997 74.046875L246.94099999999997 101.0H229.17537499999997L217.36287499999997 84.40625L205.69099999999997 101.0H187.92537499999997Z M247.83799999999997 48.5H264.61924999999997L278.72862499999997 84.125L290.72862499999997 48.5H307.50987499999997L285.43174999999997 105.96875Q282.10362499999997 114.734375 277.67393749999997 118.2265625Q273.24424999999997 121.71875 265.97862499999997 121.71875H256.27549999999997V110.703125H261.52549999999997Q265.79112499999997 110.703125 267.73643749999997 109.34375Q269.68174999999997 107.984375 270.75987499999997 104.46875L271.22862499999997 103.015625Z M365.03187499999996 33.21875V48.03125Q359.26624999999996 45.453125 353.78187499999996 44.140625Q348.29749999999996 42.828125 343.42249999999996 42.828125Q336.95374999999996 42.828125 333.85999999999996 44.609375Q330.76624999999996 46.390625 330.76624999999996 50.140625Q330.76624999999996 52.953125 332.85218749999996 54.5234375Q334.93812499999996 56.09375 340.42249999999996 57.21875L348.10999999999996 58.765625Q359.78187499999996 61.109375 364.70374999999996 65.890625Q369.62562499999996 70.671875 369.62562499999996 79.484375Q369.62562499999996 91.0625 362.75843749999996 96.7109375Q355.89124999999996 102.359375 341.78187499999996 102.359375Q335.12562499999996 102.359375 328.42249999999996 101.09375Q321.71937499999996 99.828125 315.01624999999996 97.34375V82.109375Q321.71937499999996 85.671875 327.97718749999996 87.4765625Q334.23499999999996 89.28125 340.04749999999996 89.28125Q345.95374999999996 89.28125 349.09437499999996 87.3125Q352.23499999999996 85.34375 352.23499999999996 81.6875Q352.23499999999996 78.40625 350.10218749999996 76.625Q347.96937499999996 74.84375 341.59437499999996 73.4375L334.60999999999996 71.890625Q324.10999999999996 69.640625 319.25843749999996 64.71875Q314.40687499999996 59.796875 314.40687499999996 51.453125Q314.40687499999996 41.0 321.15687499999996 35.375Q327.90687499999996 29.75 340.56312499999996 29.75Q346.32874999999996 29.75 352.42249999999996 30.6171875Q358.51624999999996 31.484375 365.03187499999996 33.21875Z M425.41324999999995 50.140625V63.828125Q421.99137499999995 61.484375 418.54606249999995 60.359375Q415.10074999999995 59.234375 411.39762499999995 59.234375Q404.36637499999995 59.234375 400.45231249999995 63.3359375Q396.53824999999995 67.4375 396.53824999999995 74.796875Q396.53824999999995 82.15625 400.45231249999995 86.2578125Q404.36637499999995 90.359375 411.39762499999995 90.359375Q415.33512499999995 90.359375 418.87418749999995 89.1875Q422.41324999999995 88.015625 425.41324999999995 85.71875V99.453125Q421.47574999999995 100.90625 417.42106249999995 101.6328125Q413.36637499999995 102.359375 409.28824999999995 102.359375Q395.08512499999995 102.359375 387.06949999999995 95.0703125Q379.05387499999995 87.78125 379.05387499999995 74.796875Q379.05387499999995 61.8125 387.06949999999995 54.5234375Q395.08512499999995 47.234375 409.28824999999995 47.234375Q413.41324999999995 47.234375 417.42106249999995 47.9609375Q421.42887499999995 48.6875 425.41324999999995 50.140625Z M477.16962499999994 62.796875Q474.96649999999994 61.765625 472.78681249999994 61.2734375Q470.60712499999994 60.78125 468.40399999999994 60.78125Q461.93524999999994 60.78125 458.44306249999994 64.9296875Q454.95087499999994 69.078125 454.95087499999994 76.8125V101.0H438.16962499999994V48.5H454.95087499999994V57.125Q458.18524999999994 51.96875 462.38056249999994 49.6015625Q466.57587499999994 47.234375 472.43524999999994 47.234375Q473.27899999999994 47.234375 474.26337499999994 47.3046875Q475.24774999999994 47.375 477.12274999999994 47.609375Z M508.76974999999993 59.234375Q503.19162499999993 59.234375 500.26193749999993 63.2421875Q497.33224999999993 67.25 497.33224999999993 74.796875Q497.33224999999993 82.34375 500.26193749999993 86.3515625Q503.19162499999993 90.359375 508.76974999999993 90.359375Q514.2541249999999 90.359375 517.1603749999999 86.3515625Q520.0666249999999 82.34375 520.0666249999999 74.796875Q520.0666249999999 67.25 517.1603749999999 63.2421875Q514.2541249999999 59.234375 508.76974999999993 59.234375ZM508.76974999999993 47.234375Q522.3166249999999 47.234375 529.9338124999999 54.546875Q537.5509999999999 61.859375 537.5509999999999 74.796875Q537.5509999999999 87.734375 529.9338124999999 95.046875Q522.3166249999999 102.359375 508.76974999999993 102.359375Q495.17599999999993 102.359375 487.51193749999993 95.046875Q479.84787499999993 87.734375 479.84787499999993 74.796875Q479.84787499999993 61.859375 487.51193749999993 54.546875Q495.17599999999993 47.234375 508.76974999999993 47.234375Z M548.0104999999999 28.0625H564.7917499999999V101.0H548.0104999999999Z M579.1887499999999 28.0625H595.9699999999999V101.0H579.1887499999999Z" fill="#111827"/>
</svg>
